<svg version="1" xmlns="http://www.w3.org/2000/svg" width="933.333" height="933.333" viewBox="0 0 700.000000 700.000000"><path d="M319 .3c.3.3 3.4 1.7 7 3.2 3.6 1.5 12.3 5.6 19.4 9.1 67.7 34 114.4 83.9 134.2 143.4 2.5 7.6 6.9 24.5 7.9 31 .3 1.9 1 6 1.5 9s1.2 8.6 1.6 12.5c.3 3.8.8 8.6 1.1 10.5.7 6 1.2 78 .5 78-.4-.1-12.2-17.3-26.2-38.3-14-21-26.2-39.1-27.1-40.2-1.7-1.9-2.9-2-21.1-1.8-10.6 0-19.6.1-19.9.2-.4.1-.7 38.9-.7 86.3-.1 107.4.1 95.9-1.5 92.8-1.2-2.2-7.6-12.6-32.6-53-2.5-4.1-5-8.2-5.6-9.2-.5-1-9.3-15.2-19.4-31.5-10.1-16.4-18.6-30.2-18.9-30.7-.3-.5-.5-13-.5-27.8 0-14.7-.3-26.8-.6-26.9-.3 0-7.9-.2-16.8-.2l-16.2-.2-11.9-19.1c-6.5-10.5-12.2-19.7-12.5-20.5-.4-.8-4.6-7.7-9.5-15.4l-8.8-14-28.7-.3c-15.8-.1-28.7.1-28.8.5-.3 1.9-1.4 21.4-2.4 42.8-.2 3.8-.6 12.2-1 18.5-.3 6.3-.8 15.8-1 21-.3 5.2-.7 13.5-1 18.5-.3 4.9-.7 13.3-1 18.5-1.1 21.4-1.6 28.4-1.8 28.6-.2.2-12.1-17.4-26.6-39.1-14.5-21.7-26.9-39.6-27.5-39.7-1.8-.6-38.5-.2-39.1.4-.4.4-.8 252.2-.5 295.5v3.3h37.8l-.2-117c0-64.3.2-116.9.6-116.7.5.1 12.5 17.7 26.7 39.1 25.8 38.5 26 38.9 25.6 43.5-2.6 31.8-2.7 78.8 0 101.1.4 3.9 1.4 12 2 16.5.2 1.7.7 5.7 1.1 9 .3 3.3.8 6.3 1 6.6.1.3.6 3.2.9 6.5.4 3.2.8 6.1 1 6.4.2.3.6 2.6 1 5 4.6 31.9 18 70.3 31.1 89.7C230.4 633.2 261 657 297 672c4.1 1.7 8.9 3.7 10.5 4.5 1.7.7 4.1 1.6 5.5 2 1.4.3 3.4 1 4.5 1.5 2.2 1 27.9 8.8 31.7 9.6 1.2.2 4.1.9 6.3 1.3 14.7 3.2 22 4.5 35.5 6.5 12.8 1.8 20 2.6 20 2.1 0-.2-3.3-1.6-7.2-3.1-31.4-11.8-62.6-27.7-88.9-45.1-21.3-14.2-45.5-35.8-58.8-52.8-3.4-4.4-6.8-8.7-7.4-9.5-5.3-6.7-15.3-24.5-20.1-35.7-7.3-17.2-10.8-31.4-13.2-54.8-.7-6.8-1-58.1-.4-68l.5-8 31.1 46.5 31.1 46.5h40.8v-81.2c.1-44.7.4-81.4.7-81.5.7-.3 1.2.4 14.3 20.7 4.3 6.6 10.4 16 13.6 21 3.2 4.9 10.2 15.8 15.6 24.2 5.4 8.4 15.4 23.9 22.2 34.4l12.4 19.3-.1 21.8V516H425.5l17.6 27.3 17.7 27.2 29.1.3 29.1.2.1-8.2c0-4.6.2-11.7.4-15.8.2-4.1.6-14.3.9-22.5.3-8.3.8-20.6 1.1-27.5.3-6.9.7-17.5 1-23.5.4-10.6 1.4-37.1 2-50.3.1-3.4.4-6.5.7-6.7.3-.3 15.5 22 33.8 49.5l33.3 50H633l-.2-149.7-.3-149.7-17.8-.1c-9.9 0-18.3.3-18.8.6s-1 49.3-1.1 117l-.3 116.6-33.5-50-33.5-50 .1-6.1c.1-3.4.5-15.3 1-26.6 1.5-35.9 1.1-77.1-1-87.7-.3-1.2-.7-4.6-1-7.5-.6-5-.9-6.8-2.1-12.8-.2-1.4-.7-4.1-1-6-.3-1.9-1.1-5.3-1.6-7.5-.6-2.2-1.2-4.7-1.4-5.5-.2-.8-1.3-5.3-2.5-10s-2.3-9.2-2.5-10c-1-4.9-10.7-34.1-13.6-41-5-11.6-13.1-27.1-19-36.1-3.4-5.2-6.4-9.6-6.8-9.9-.3-.3-2.2-2.5-4.1-5-19.9-25.9-50.9-48.6-84.5-62-17.9-7.2-41.9-13.6-58-15.5-2.7-.3-6.3-.9-8-1.2-1.6-.3-2.8-.3-2.5 0zm-62.8 253.4l24.3 37.8.1 79.8c0 43.8-.3 79.4-.7 79-.4-.5-14.5-21.4-31.3-46.5L217.9 358l.6-10.7c.3-6 .8-12.8 1-15.3.3-2.5.7-8.6 1.1-13.5.3-5 .7-10.6.9-12.5.2-1.9.6-6.9 1-11 .3-4.1.8-9.5 1.1-12 .2-2.5.7-6.8.9-9.5.7-6.6 1.6-14.4 2-17.5.3-2.3.7-5.7 2.1-17.5.5-4.9 1.2-9.6 2-15.5.4-2.5.7-5.1.7-5.8 0-.6.1-1.2.3-1.2.1 0 11.2 17 24.6 37.7zM446.1 297c4.6 6.9 8.9 13.3 9.4 14.2.6 1 8.4 12.7 17.4 26 14.4 21.3 16.4 24.8 16.5 28.3 0 4.3-1.2 26-1.9 33.5-.2 2.5-.7 8.2-1 12.8-.3 4.5-.8 9-1 10-.1.9-.6 5.3-.9 9.7-.4 4.4-.8 9.1-1.1 10.5-.2 1.4-.7 5.2-1 8.5-.3 3.3-1 8.8-1.6 12.1-.5 3.4-1.1 8.4-1.4 11-.2 2.7-.7 6.7-1.1 8.9-.3 2.2-.7 5.1-.9 6.5-.8 5.1-2.5 15.6-2.9 17.5-.2 1.1-.7 4.4-1.1 7.2-.4 2.9-1 5.3-1.3 5.3-.4 0-3.3-4.4-6.5-9.8-3.3-5.3-11.5-18.7-18.2-29.7l-12.4-20v-88.9c0-73 .3-88.6 1.4-87.5.7.8 5 7 9.6 13.9z"/></svg>