<svg xmlns="http://www.w3.org/2000/svg" x="0px" y="0px"
width="48" height="48"
viewBox="0 0 172 172"
style=" fill:#000000;"><defs><linearGradient x1="139.75" y1="162.42175" x2="139.75" y2="114.33342" gradientUnits="userSpaceOnUse" id="color-1_OExBsk632jtj_gr1"><stop offset="0" stop-color="#171717"></stop><stop offset="1" stop-color="#171717"></stop></linearGradient><linearGradient x1="139.75" y1="162.42175" x2="139.75" y2="114.33342" gradientUnits="userSpaceOnUse" id="color-2_OExBsk632jtj_gr2"><stop offset="0" stop-color="#171717"></stop><stop offset="1" stop-color="#171717"></stop></linearGradient></defs><g transform="translate(1.032,1.032) scale(0.988,0.988)"><g fill="none" fill-rule="nonzero" stroke="none" stroke-width="none" stroke-linecap="butt" stroke-linejoin="none" stroke-miterlimit="10" stroke-dasharray="" stroke-dashoffset="0" font-family="none" font-weight="none" font-size="none" text-anchor="none" style="mix-blend-mode: normal"><g stroke="#cccccc" stroke-width="2" stroke-linejoin="round"><path d="M139.75,25.08333v121.83333c0,3.95958 -3.20708,7.16667 -7.16667,7.16667h-93.16667c-3.95958,0 -7.16667,-3.20708 -7.16667,-7.16667v-121.83333c0,-3.95958 3.20708,-7.16667 7.16667,-7.16667h93.16667c3.95958,0 7.16667,3.20708 7.16667,7.16667z" fill="#50e6ff"></path><path d="M53.75,46.58333c0,-3.95804 3.20863,-7.16667 7.16667,-7.16667c3.95804,0 7.16667,3.20863 7.16667,7.16667c0,3.95804 -3.20863,7.16667 -7.16667,7.16667c-3.95804,0 -7.16667,-3.20863 -7.16667,-7.16667z" fill="#057093"></path><path d="M71.66667,68.08333v5.01667c0,1.18608 -0.96392,2.15 -2.15,2.15h-17.2c-1.18608,0 -2.15,-0.96392 -2.15,-2.15v-5.01667c0,-5.93758 4.81242,-10.75 10.75,-10.75c5.93758,0 10.75,4.81242 10.75,10.75z" fill="#057093"></path><path d="M121.83333,103.91667c0,1.978 -1.60533,3.58333 -3.58333,3.58333h-64.5c-1.978,0 -3.58333,-1.60533 -3.58333,-3.58333c0,-1.978 1.60533,-3.58333 3.58333,-3.58333h64.5c1.978,0 3.58333,1.60533 3.58333,3.58333z" fill="#057093"></path><path d="M121.83333,89.58333c0,1.978 -1.60533,3.58333 -3.58333,3.58333h-64.5c-1.978,0 -3.58333,-1.60533 -3.58333,-3.58333c0,-1.978 1.60533,-3.58333 3.58333,-3.58333h64.5c1.978,0 3.58333,1.60533 3.58333,3.58333z" fill="#057093"></path><path d="M107.5,132.58333c0,1.978 -1.60533,3.58333 -3.58333,3.58333h-50.16667c-1.978,0 -3.58333,-1.60533 -3.58333,-3.58333c0,-1.978 1.60533,-3.58333 3.58333,-3.58333h50.16667c1.978,0 3.58333,1.60533 3.58333,3.58333z" fill="#057093"></path><path d="M121.83333,118.25c0,1.978 -1.60533,3.58333 -3.58333,3.58333h-64.5c-1.978,0 -3.58333,-1.60533 -3.58333,-3.58333c0,-1.978 1.60533,-3.58333 3.58333,-3.58333h64.5c1.978,0 3.58333,1.60533 3.58333,3.58333z" fill="#057093"></path><path d="M121.83333,60.91667c0,1.978 -1.60533,3.58333 -3.58333,3.58333h-28.66667c-1.978,0 -3.58333,-1.60533 -3.58333,-3.58333c0,-1.978 1.60533,-3.58333 3.58333,-3.58333h28.66667c1.978,0 3.58333,1.60533 3.58333,3.58333z" fill="#057093"></path><path d="M121.83333,46.58333c0,1.978 -1.60533,3.58333 -3.58333,3.58333h-28.66667c-1.978,0 -3.58333,-1.60533 -3.58333,-3.58333c0,-1.978 1.60533,-3.58333 3.58333,-3.58333h28.66667c1.978,0 3.58333,1.60533 3.58333,3.58333z" fill="#057093"></path><path d="M160.60858,143.45517l-17.78767,17.78767c-1.69492,1.69492 -4.44692,1.69492 -6.14183,0l-17.78767,-17.78767c-1.36883,-1.36525 -0.40133,-3.70517 1.53367,-3.70517h12.15825v-21.5c0,-1.978 1.60533,-3.58333 3.58333,-3.58333h7.16667c1.978,0 3.58333,1.60533 3.58333,3.58333v21.5h12.15825c1.935,0 2.9025,2.33992 1.53367,3.70517z" fill="url(#color-1_OExBsk632jtj_gr1)"></path></g><path d="M0,172v-172h172v172z" fill="none" stroke="none" stroke-width="1" stroke-linejoin="miter"></path><g stroke="none" stroke-width="1" stroke-linejoin="miter"><path d="M139.75,25.08333v121.83333c0,3.95958 -3.20708,7.16667 -7.16667,7.16667h-93.16667c-3.95958,0 -7.16667,-3.20708 -7.16667,-7.16667v-121.83333c0,-3.95958 3.20708,-7.16667 7.16667,-7.16667h93.16667c3.95958,0 7.16667,3.20708 7.16667,7.16667z" fill="#50e6ff"></path><circle cx="17" cy="13" transform="scale(3.58333,3.58333)" r="2" fill="#057093"></circle><path d="M60.91667,57.33333c-5.93758,0 -10.75,4.81242 -10.75,10.75v5.01667c0,1.18608 0.96392,2.15 2.15,2.15h17.2c1.18608,0 2.15,-0.96392 2.15,-2.15v-5.01667c0,-5.93758 -4.81242,-10.75 -10.75,-10.75z" fill="#057093"></path><path d="M118.25,100.33333h-64.5c-1.978,0 -3.58333,1.60533 -3.58333,3.58333v0c0,1.978 1.60533,3.58333 3.58333,3.58333h64.5c1.978,0 3.58333,-1.60533 3.58333,-3.58333v0c0,-1.978 -1.60533,-3.58333 -3.58333,-3.58333z" fill="#057093"></path><path d="M118.25,86h-64.5c-1.978,0 -3.58333,1.60533 -3.58333,3.58333v0c0,1.978 1.60533,3.58333 3.58333,3.58333h64.5c1.978,0 3.58333,-1.60533 3.58333,-3.58333v0c0,-1.978 -1.60533,-3.58333 -3.58333,-3.58333z" fill="#057093"></path><path d="M103.91667,129h-50.16667c-1.978,0 -3.58333,1.60533 -3.58333,3.58333v0c0,1.978 1.60533,3.58333 3.58333,3.58333h50.16667c1.978,0 3.58333,-1.60533 3.58333,-3.58333v0c0,-1.978 -1.60533,-3.58333 -3.58333,-3.58333z" fill="#057093"></path><path d="M118.25,114.66667h-64.5c-1.978,0 -3.58333,1.60533 -3.58333,3.58333v0c0,1.978 1.60533,3.58333 3.58333,3.58333h64.5c1.978,0 3.58333,-1.60533 3.58333,-3.58333v0c0,-1.978 -1.60533,-3.58333 -3.58333,-3.58333z" fill="#057093"></path><path d="M118.25,57.33333h-28.66667c-1.978,0 -3.58333,1.60533 -3.58333,3.58333v0c0,1.978 1.60533,3.58333 3.58333,3.58333h28.66667c1.978,0 3.58333,-1.60533 3.58333,-3.58333v0c0,-1.978 -1.60533,-3.58333 -3.58333,-3.58333z" fill="#057093"></path><path d="M118.25,43h-28.66667c-1.978,0 -3.58333,1.60533 -3.58333,3.58333v0c0,1.978 1.60533,3.58333 3.58333,3.58333h28.66667c1.978,0 3.58333,-1.60533 3.58333,-3.58333v0c0,-1.978 -1.60533,-3.58333 -3.58333,-3.58333z" fill="#057093"></path><path d="M159.07492,139.75h-12.15825v-21.5c0,-1.978 -1.60533,-3.58333 -3.58333,-3.58333h-7.16667c-1.978,0 -3.58333,1.60533 -3.58333,3.58333v21.5h-12.15825c-1.935,0 -2.9025,2.33992 -1.53367,3.70517l17.78767,17.78767c1.69492,1.69492 4.44692,1.69492 6.14183,0l17.78767,-17.78767c1.36883,-1.36525 0.40133,-3.70517 -1.53367,-3.70517z" fill="url(#color-2_OExBsk632jtj_gr2)"></path></g><path d="" fill="none" stroke="none" stroke-width="1" stroke-linejoin="miter"></path><path d="" fill="none" stroke="none" stroke-width="1" stroke-linejoin="miter"></path></g></g></svg>